<svg width="24" height="24" viewBox="0 0 24 24" fill="none" xmlns="http://www.w3.org/2000/svg">
<path d="M22.7999 16V7.92C22.7894 6.14734 22.0778 4.45088 20.8205 3.20115C19.5633 1.95142 17.8626 1.24997 16.0899 1.25H7.94995C7.06204 1.24469 6.18191 1.41566 5.36057 1.753C4.53922 2.09034 3.793 2.58734 3.16514 3.21519C2.53729 3.84305 2.04029 4.58927 1.70295 5.41062C1.36561 6.23196 1.19464 7.11209 1.19995 8V16.08C1.21121 17.3708 1.59456 18.631 2.30405 19.7094C3.01353 20.7878 4.01902 21.6387 5.19995 22.16C5.38995 22.24 5.57995 22.32 5.76995 22.38H5.83995L6.42995 22.54H6.51995C6.69995 22.54 6.88995 22.6 7.07995 22.63H7.19995C7.40995 22.63 7.62995 22.63 7.84995 22.63H7.99995H16.1399C16.3599 22.63 16.5899 22.63 16.8099 22.63H16.9799C17.1513 22.6131 17.3216 22.5864 17.4899 22.55H17.5799L18.1699 22.39C18.3899 22.32 18.6099 22.23 18.8199 22.14L19.4499 21.86C19.971 21.555 20.4515 21.1854 20.8799 20.76C21.4976 20.132 21.9851 19.3883 22.3146 18.5715C22.6441 17.7546 22.809 16.8807 22.7999 16ZM7.84995 21.26C7.59459 21.2587 7.33999 21.2319 7.08995 21.18C6.96484 21.1673 6.84105 21.1439 6.71995 21.11L6.48995 21C6.99822 19.9758 7.78239 19.1138 8.75413 18.5112C9.72586 17.9087 10.8465 17.5894 11.9899 17.5894C13.1334 17.5894 14.254 17.9087 15.2258 18.5112C16.1975 19.1138 16.9817 19.9758 17.4899 21L17.2699 21.07L17.0199 21.12C16.7242 21.184 16.4226 21.2175 16.12 21.22L7.99995 21.27L7.84995 21.26ZM18.8499 20.42C18.2309 19.1269 17.2588 18.0353 16.0459 17.2712C14.8329 16.5071 13.4285 16.1016 11.9949 16.1016C10.5614 16.1016 9.15701 16.5071 7.94404 17.2712C6.73107 18.0353 5.75896 19.1269 5.13995 20.42C4.41013 19.9537 3.80835 19.3125 3.38923 18.5545C2.97011 17.7966 2.74693 16.946 2.73995 16.08L2.69995 8C2.69727 6.62074 3.24057 5.29648 4.21116 4.31652C5.18175 3.33656 6.50073 2.78056 7.87995 2.77H16.0199C17.3957 2.77259 18.7149 3.31823 19.6905 4.28825C20.6662 5.25827 21.2194 6.57424 21.2299 7.95V16.03C21.2356 16.7145 21.105 17.3932 20.8457 18.0267C20.5865 18.6602 20.2038 19.2358 19.7199 19.72C19.4582 19.9865 19.1662 20.2214 18.8499 20.42ZM11.9999 6.16C11.1356 6.16 10.2908 6.41629 9.57211 6.89648C8.85346 7.37666 8.29335 8.05916 7.9626 8.85767C7.63184 9.65619 7.5453 10.5348 7.71392 11.3825C7.88253 12.2302 8.29874 13.0089 8.90989 13.6201C9.52105 14.2312 10.2997 14.6474 11.1474 14.816C11.9951 14.9846 12.8738 14.8981 13.6723 14.5674C14.4708 14.2366 15.1533 13.6765 15.6335 12.9578C16.1137 12.2392 16.37 11.3943 16.37 10.53C16.37 9.371 15.9095 8.25948 15.09 7.43994C14.2705 6.62041 13.1589 6.16 11.9999 6.16ZM11.9999 13.4C11.4323 13.4 10.8774 13.2317 10.4055 12.9163C9.93349 12.601 9.56564 12.1527 9.34842 11.6283C9.13119 11.1039 9.07436 10.5268 9.1851 9.97009C9.29583 9.41336 9.56918 8.90198 9.97055 8.5006C10.3719 8.09923 10.8833 7.82588 11.44 7.71514C11.9968 7.6044 12.5738 7.66124 13.0983 7.87846C13.6227 8.09569 14.0709 8.46354 14.3863 8.93551C14.7016 9.40748 14.8699 9.96237 14.8699 10.53C14.8673 11.2904 14.5641 12.0188 14.0264 12.5565C13.4888 13.0941 12.7603 13.3974 11.9999 13.4Z" fill="#4089FF"/>
</svg>
