<svg width="24" height="24" viewBox="0 0 24 24" fill="none" xmlns="http://www.w3.org/2000/svg">
<path d="M19.73 22.74H16.33C15.5343 22.74 14.7713 22.4239 14.2087 21.8613C13.6461 21.2987 13.33 20.5357 13.33 19.74V15.27C13.3291 15.0786 13.286 14.8897 13.2037 14.7169C13.1214 14.544 13.002 14.3915 12.8539 14.2702C12.7058 14.1489 12.5328 14.0617 12.3472 14.015C12.1615 13.9683 11.9678 13.9632 11.78 14C11.468 14.0679 11.1899 14.2433 10.9942 14.4956C10.7986 14.7479 10.698 15.061 10.71 15.38V19.7C10.71 20.4957 10.3939 21.2587 9.8313 21.8213C9.2687 22.3839 8.50563 22.7 7.70998 22.7H4.26998C3.47433 22.7 2.71127 22.3839 2.14866 21.8213C1.58605 21.2587 1.26998 20.4957 1.26998 19.7V11.33C1.26163 10.5939 1.4118 9.86458 1.71031 9.19164C2.00882 8.5187 2.44867 7.91789 2.99998 7.43002L8.75998 2.43002C9.66424 1.66068 10.8127 1.23822 12 1.23822C13.1872 1.23822 14.3357 1.66068 15.24 2.43002L20.99 7.43002C21.5481 7.913 21.9959 8.5103 22.303 9.18145C22.6101 9.85261 22.7694 10.5819 22.77 11.32V19.7C22.7754 20.1007 22.7004 20.4985 22.5495 20.8697C22.3987 21.241 22.1749 21.5782 21.8916 21.8616C21.6082 22.145 21.2709 22.3687 20.8997 22.5196C20.5284 22.6704 20.1307 22.7454 19.73 22.74ZM12 12.49C12.7382 12.49 13.4463 12.7826 13.9693 13.3037C14.4922 13.8247 14.7873 14.5318 14.79 15.27V19.7C14.79 20.1085 14.9522 20.5002 15.241 20.789C15.5298 21.0778 15.9216 21.24 16.33 21.24H19.73C19.9331 21.2413 20.1344 21.2025 20.3224 21.1257C20.5104 21.0489 20.6813 20.9356 20.8254 20.7925C20.9695 20.6494 21.0838 20.4792 21.1618 20.2917C21.2398 20.1042 21.28 19.9031 21.28 19.7V11.32C21.277 10.7951 21.1612 10.2769 20.9404 9.80072C20.7195 9.3245 20.3988 8.90136 20 8.56002L14.25 3.56002C13.6199 3.02193 12.8185 2.7263 11.99 2.7263C11.1614 2.7263 10.36 3.02193 9.72998 3.56002L3.99998 8.57002C3.60044 8.91013 3.27983 9.33325 3.0605 9.80991C2.84116 10.2866 2.72837 10.8053 2.72998 11.33V19.7C2.72998 19.9031 2.77014 20.1042 2.84816 20.2917C2.92618 20.4792 3.04051 20.6494 3.18457 20.7925C3.32863 20.9356 3.49958 21.0489 3.68758 21.1257C3.87558 21.2025 4.07691 21.2413 4.27998 21.24H7.67998C8.08668 21.2374 8.47582 21.074 8.76247 20.7854C9.04912 20.4969 9.20999 20.1067 9.20998 19.7V15.38C9.20227 14.706 9.43122 14.0506 9.85698 13.528C10.2827 13.0054 10.8783 12.6487 11.54 12.52C11.6925 12.4997 11.8462 12.4897 12 12.49Z" fill="#4089FF"/>
</svg>
