<svg width="24" height="24" viewBox="0 0 24 24" fill="none" xmlns="http://www.w3.org/2000/svg">
<path d="M19.84 4.99997H18.71C18.7901 4.79616 18.8309 4.57898 18.83 4.35997C18.8326 4.14034 18.7905 3.92248 18.7062 3.71962C18.622 3.51677 18.4974 3.33317 18.34 3.17997L16.91 1.73997C16.5969 1.42732 16.1725 1.25171 15.73 1.25171C15.2875 1.25171 14.8631 1.42732 14.55 1.73997L12 4.28997L9.45 1.73997C9.13197 1.43675 8.70942 1.26759 8.27 1.26759C7.83058 1.26759 7.40803 1.43675 7.09 1.73997L5.66 3.17997C5.5026 3.33317 5.37799 3.51677 5.29375 3.71962C5.20952 3.92248 5.16741 4.14034 5.17 4.35997C5.16913 4.57898 5.20985 4.79616 5.29 4.99997H4.16C3.71974 4.99997 3.29751 5.17487 2.9862 5.48618C2.67489 5.79749 2.5 6.21971 2.5 6.65997V8.32997C2.50062 8.60556 2.56943 8.87671 2.70029 9.11924C2.83115 9.36177 3.02 9.56815 3.25 9.71997V19.12C3.25 20.081 3.63107 21.0028 4.30966 21.6832C4.98826 22.3637 5.909 22.7473 6.87 22.75H17.13C18.091 22.7473 19.0117 22.3637 19.6903 21.6832C20.3689 21.0028 20.75 20.081 20.75 19.12V9.71997C20.98 9.56815 21.1688 9.36177 21.2997 9.11924C21.4306 8.87671 21.4994 8.60556 21.5 8.32997V6.65997C21.5 6.21971 21.3251 5.79749 21.0138 5.48618C20.7025 5.17487 20.2803 4.99997 19.84 4.99997ZM15.61 2.79997C15.643 2.77046 15.6857 2.75414 15.73 2.75414C15.7743 2.75414 15.817 2.77046 15.85 2.79997L17.28 4.23997C17.3095 4.27297 17.3258 4.3157 17.3258 4.35997C17.3258 4.40425 17.3095 4.44697 17.28 4.47997L16.77 4.99997H13.42L15.61 2.79997ZM6.72 4.47997C6.69048 4.44697 6.67416 4.40425 6.67416 4.35997C6.67416 4.3157 6.69048 4.27297 6.72 4.23997L8.15 2.79997C8.18521 2.77545 8.22709 2.76231 8.27 2.76231C8.31291 2.76231 8.35479 2.77545 8.39 2.79997L10.58 4.99997H7.23L6.72 4.47997ZM4 6.65997C4 6.61754 4.01686 6.57684 4.04686 6.54684C4.07687 6.51683 4.11757 6.49997 4.16 6.49997H19.84C19.8824 6.49997 19.9231 6.51683 19.9531 6.54684C19.9831 6.57684 20 6.61754 20 6.65997V8.32997C20.0001 8.37338 19.9835 8.41517 19.9538 8.44678C19.924 8.47839 19.8833 8.49742 19.84 8.49997H4.16C4.11667 8.49742 4.07595 8.47839 4.04621 8.44678C4.01646 8.41517 3.99992 8.37338 4 8.32997V6.65997ZM9.74 9.99997H14.26V15.09C14.2613 15.1352 14.2497 15.1798 14.2267 15.2187C14.2037 15.2576 14.1702 15.2893 14.13 15.31C14.0933 15.3353 14.0497 15.3489 14.005 15.3489C13.9603 15.3489 13.9167 15.3353 13.88 15.31L13.12 14.8C12.7903 14.5786 12.4021 14.4603 12.005 14.4603C11.6079 14.4603 11.2197 14.5786 10.89 14.8L10.12 15.31C10.0833 15.3353 10.0397 15.3489 9.995 15.3489C9.95034 15.3489 9.90675 15.3353 9.87 15.31C9.82981 15.2893 9.79629 15.2576 9.77329 15.2187C9.75029 15.1798 9.73875 15.1352 9.74 15.09V9.99997ZM17.13 21.25H6.87C6.30682 21.2473 5.76761 21.0218 5.37032 20.6226C4.97303 20.2234 4.74999 19.6832 4.75 19.12V9.99997H8.24V15.09C8.24 15.3206 8.28559 15.549 8.37416 15.762C8.46273 15.975 8.59253 16.1683 8.75609 16.331C8.91966 16.4936 9.11376 16.6223 9.32723 16.7096C9.54071 16.797 9.76935 16.8413 10 16.84C10.3548 16.8451 10.703 16.7441 11 16.55L11.76 16.04C11.8471 15.9859 11.9475 15.9573 12.05 15.9573C12.1525 15.9573 12.2529 15.9859 12.34 16.04L13.1 16.55C13.3637 16.723 13.6692 16.8215 13.9843 16.8352C14.2994 16.8488 14.6124 16.777 14.89 16.6274C15.1677 16.4778 15.3997 16.256 15.5617 15.9854C15.7236 15.7147 15.8094 15.4054 15.81 15.09V9.99997H19.3V19.12C19.3 19.4031 19.2437 19.6834 19.1341 19.9444C19.0246 20.2055 18.8641 20.4421 18.6621 20.6404C18.46 20.8388 18.2205 20.9948 17.9574 21.0995C17.6943 21.2041 17.4131 21.2553 17.13 21.25Z" fill="#4089FF"/>
</svg>
