<svg width="17" height="17" viewBox="0 0 17 17" fill="none" xmlns="http://www.w3.org/2000/svg">
<path d="M5.14248 16.1146C4.67945 16.1141 4.22927 15.9624 3.86039 15.6825C3.54957 15.4439 3.30456 15.1302 3.14843 14.7709C2.99229 14.4115 2.93017 14.0183 2.96789 13.6283L3.22289 10.9437C3.22582 10.9092 3.22168 10.8744 3.21072 10.8416C3.19976 10.8087 3.18221 10.7784 3.15914 10.7525L1.41664 8.74083C1.16499 8.43971 0.993964 8.07959 0.919625 7.69426C0.845285 7.30893 0.870066 6.91104 0.991642 6.53791C1.10495 6.16618 1.31367 5.83062 1.59703 5.56466C1.88039 5.2987 2.22848 5.11163 2.60664 5.02208L5.14248 4.44833C5.20686 4.42756 5.26197 4.38498 5.29831 4.32791L6.61581 2.00458C6.79544 1.66013 7.06607 1.37151 7.39826 1.1701C7.73045 0.968691 8.1115 0.862198 8.49998 0.862198C8.88845 0.862198 9.2695 0.968691 9.60169 1.1701C9.93388 1.37151 10.2045 1.66013 10.3841 2.00458L11.7016 4.32791C11.738 4.38498 11.7931 4.42756 11.8575 4.44833L14.3933 5.02208C14.7715 5.11163 15.1196 5.2987 15.4029 5.56466C15.6863 5.83062 15.895 6.16618 16.0083 6.53791C16.1299 6.91104 16.1547 7.30893 16.0803 7.69426C16.006 8.07959 15.835 8.43971 15.5833 8.74083L13.8621 10.7525C13.839 10.7784 13.8214 10.8087 13.8105 10.8416C13.7995 10.8744 13.7954 10.9092 13.7983 10.9437L14.0533 13.6283C14.091 14.0183 14.0289 14.4115 13.8728 14.7709C13.7166 15.1302 13.4716 15.4439 13.1608 15.6825C12.8557 15.9134 12.494 16.0577 12.1137 16.1001C11.7335 16.1425 11.3488 16.0814 11.0004 15.9233L8.59914 14.875C8.56798 14.8609 8.53417 14.8536 8.49998 14.8536C8.46578 14.8536 8.43197 14.8609 8.40081 14.875L6.02081 15.9233C5.74502 16.049 5.44554 16.1142 5.14248 16.1146ZM8.49998 1.90541C8.28837 1.90691 8.081 1.9648 7.89922 2.07312C7.71744 2.18144 7.56783 2.33627 7.46581 2.52166L6.14831 4.845C6.0659 4.99481 5.95252 5.12536 5.81573 5.22795C5.67894 5.33054 5.52187 5.40283 5.35497 5.44L2.83331 6.02083C2.6227 6.06533 2.42799 6.16579 2.26968 6.31164C2.11137 6.45748 1.99531 6.64332 1.93372 6.84958C1.8673 7.05526 1.85455 7.27451 1.8967 7.48651C1.93886 7.6985 2.0345 7.8962 2.17456 8.06083L3.90289 10.0725C4.12745 10.3437 4.23679 10.6921 4.20747 11.0429L3.95247 13.7275C3.92673 13.9448 3.95829 14.165 4.04403 14.3663C4.12978 14.5676 4.26671 14.743 4.44122 14.875C4.60757 15.0028 4.80559 15.0828 5.014 15.1065C5.22241 15.1302 5.43334 15.0967 5.62414 15.0096L8.01123 13.9329C8.16463 13.8628 8.33131 13.8265 8.49998 13.8265C8.66864 13.8265 8.83532 13.8628 8.98872 13.9329L11.3758 15.0096C11.5666 15.0967 11.7775 15.1302 11.986 15.1065C12.1944 15.0828 12.3924 15.0028 12.5587 14.875C12.7299 14.7449 12.8648 14.573 12.9504 14.3758C13.036 14.1786 13.0694 13.9626 13.0475 13.7487L12.7925 11.0642C12.7632 10.7133 12.8725 10.3649 13.0971 10.0937L14.8254 8.08208C14.9654 7.91745 15.0611 7.71975 15.1032 7.50776C15.1454 7.29576 15.1327 7.07651 15.0662 6.87083C15.0079 6.66063 14.8933 6.47036 14.7348 6.32055C14.5763 6.17075 14.3798 6.06711 14.1666 6.02083L11.6237 5.44C11.4568 5.40283 11.2998 5.33054 11.163 5.22795C11.0262 5.12536 10.9128 4.99481 10.8304 4.845L9.53414 2.52166C9.43212 2.33627 9.28251 2.18144 9.10073 2.07312C8.91895 1.9648 8.71158 1.90691 8.49998 1.90541Z" fill="#4089FF"/>
</svg>
