<svg width="63" height="20" viewBox="0 0 63 20" fill="none" xmlns="http://www.w3.org/2000/svg">
<rect width="63" height="20" rx="10" fill="#31343A"/>
<circle cx="10" cy="10" r="10" fill="black"/>
<path d="M7.81331 14.3467C7.38243 14.3449 6.9697 14.173 6.66502 13.8683C6.36034 13.5636 6.1884 13.1509 6.18665 12.72V7.28C6.18701 6.99463 6.26243 6.71438 6.40535 6.46739C6.54827 6.22039 6.75365 6.01534 7.00087 5.87281C7.2481 5.73029 7.52846 5.6553 7.81383 5.6554C8.09919 5.65549 8.37951 5.73065 8.62664 5.87333L12.8333 8.29999C13.1308 8.47303 13.3777 8.7211 13.5493 9.01941C13.7208 9.31773 13.8112 9.65585 13.8112 9.99999C13.8112 10.3441 13.7208 10.6823 13.5493 10.9806C13.3777 11.2789 13.1308 11.527 12.8333 11.7L8.62664 14.1267C8.37968 14.2704 8.09908 14.3463 7.81331 14.3467V14.3467ZM7.81998 6.66666C7.70772 6.66814 7.59765 6.69795 7.49998 6.75333C7.40419 6.80704 7.32458 6.88549 7.26946 6.98048C7.21435 7.07547 7.18574 7.18351 7.18665 7.29333V12.7333C7.18574 12.8431 7.21435 12.9512 7.26946 13.0462C7.32458 13.1412 7.40419 13.2196 7.49998 13.2733C7.59524 13.3283 7.70331 13.3573 7.81331 13.3573C7.92332 13.3573 8.03138 13.3283 8.12664 13.2733L12.3333 10.8467C12.4785 10.7613 12.5988 10.6395 12.6825 10.4934C12.7661 10.3472 12.8101 10.1817 12.8101 10.0133C12.8101 9.84493 12.7661 9.67945 12.6825 9.53329C12.5988 9.38712 12.4785 9.26534 12.3333 9.18L8.12664 6.74C8.03279 6.68865 7.92691 6.66333 7.81998 6.66666V6.66666Z" fill="white"/>
<path d="M28.4219 12.5341V6.77273H29.5682V12.5341H28.4219ZM26.1165 10.2244V9.08239H31.8778V10.2244H26.1165ZM37.1428 5.27273V14H35.8217V6.59375H35.7706L33.6825 7.95739V6.69602L35.8601 5.27273H37.1428Z" fill="white"/>
<circle cx="53" cy="10" r="10" fill="black"/>
<g clip-path="url(#clip0_4_25)">
<path d="M50.235 16.2708C49.8537 16.2704 49.483 16.1455 49.1792 15.915C48.9232 15.7185 48.7214 15.4602 48.5929 15.1642C48.4643 14.8683 48.4131 14.5445 48.4442 14.2233L48.6542 12.0125C48.6566 11.9841 48.6532 11.9554 48.6442 11.9283C48.6351 11.9013 48.6207 11.8763 48.6017 11.855L47.1667 10.1983C46.9594 9.95036 46.8186 9.65379 46.7574 9.33646C46.6962 9.01913 46.7166 8.69145 46.8167 8.38417C46.91 8.07804 47.0819 7.80169 47.3152 7.58267C47.5486 7.36365 47.8353 7.20959 48.1467 7.13584L50.235 6.66334C50.288 6.64624 50.3334 6.61116 50.3634 6.56417L51.4484 4.65084C51.5963 4.36717 51.8192 4.12949 52.0927 3.96362C52.3663 3.79775 52.6801 3.71005 53 3.71005C53.3199 3.71005 53.6337 3.79775 53.9073 3.96362C54.1809 4.12949 54.4037 4.36717 54.5517 4.65084L55.6367 6.56417C55.6666 6.61116 55.712 6.64624 55.765 6.66334L57.8534 7.13584C58.1648 7.20959 58.4514 7.36365 58.6848 7.58267C58.9181 7.80169 59.09 8.07804 59.1834 8.38417C59.2835 8.69145 59.3039 9.01913 59.2427 9.33646C59.1814 9.65379 59.0406 9.95036 58.8334 10.1983L57.4159 11.855C57.3969 11.8763 57.3824 11.9013 57.3734 11.9283C57.3643 11.9554 57.3609 11.9841 57.3634 12.0125L57.5734 14.2233C57.6044 14.5445 57.5533 14.8683 57.4247 15.1642C57.2961 15.4602 57.0943 15.7185 56.8384 15.915C56.5871 16.1052 56.2892 16.224 55.976 16.2589C55.6629 16.2938 55.3461 16.2435 55.0592 16.1133L53.0817 15.25C53.056 15.2384 53.0282 15.2324 53 15.2324C52.9719 15.2324 52.944 15.2384 52.9184 15.25L50.9584 16.1133C50.7312 16.2168 50.4846 16.2705 50.235 16.2708V16.2708ZM53 4.56917C52.8258 4.5704 52.655 4.61807 52.5053 4.70728C52.3556 4.79649 52.2324 4.924 52.1484 5.07667L51.0634 6.99C50.9955 7.11338 50.9021 7.22089 50.7895 7.30538C50.6768 7.38987 50.5475 7.4494 50.41 7.48L48.3334 7.95834C48.1599 7.99498 47.9996 8.07772 47.8692 8.19783C47.7388 8.31794 47.6432 8.47098 47.5925 8.64084C47.5378 8.81022 47.5273 8.99078 47.562 9.16537C47.5967 9.33995 47.6755 9.50276 47.7909 9.63834L49.2142 11.295C49.3991 11.5183 49.4892 11.8052 49.465 12.0942L49.255 14.305C49.2338 14.4839 49.2598 14.6653 49.3304 14.8311C49.401 14.9969 49.5138 15.1413 49.6575 15.25C49.7945 15.3552 49.9576 15.4211 50.1292 15.4407C50.3008 15.4602 50.4746 15.4326 50.6317 15.3608L52.5975 14.4742C52.7238 14.4164 52.8611 14.3866 53 14.3866C53.1389 14.3866 53.2762 14.4164 53.4025 14.4742L55.3684 15.3608C55.5255 15.4326 55.6992 15.4602 55.8708 15.4407C56.0425 15.4211 56.2055 15.3552 56.3425 15.25C56.4835 15.1429 56.5946 15.0013 56.6651 14.8389C56.7356 14.6765 56.7631 14.4986 56.745 14.3225L56.535 12.1117C56.5109 11.8227 56.6009 11.5358 56.7859 11.3125L58.2092 9.65584C58.3245 9.52026 58.4033 9.35745 58.438 9.18287C58.4727 9.00828 58.4622 8.82772 58.4075 8.65834C58.3595 8.48524 58.2651 8.32854 58.1346 8.20517C58.004 8.0818 57.8422 7.99645 57.6667 7.95834L55.5725 7.48C55.4351 7.4494 55.3057 7.38987 55.1931 7.30538C55.0804 7.22089 54.9871 7.11338 54.9192 6.99L53.8517 5.07667C53.7677 4.924 53.6445 4.79649 53.4948 4.70728C53.3451 4.61807 53.1743 4.5704 53 4.56917V4.56917Z" fill="#4089FF"/>
</g>
<defs>
<clipPath id="clip0_4_25">
<rect width="14" height="14" fill="white" transform="translate(46 3)"/>
</clipPath>
</defs>
</svg>
