<svg width="200" height="200" viewBox="0 0 200 200" fill="none" xmlns="http://www.w3.org/2000/svg">
<path d="M100 4.98907C100 2.23368 97.7645 -0.012985 95.0125 0.124374C72.9795 1.22412 51.8741 9.58604 35.0325 23.9788C16.9238 39.4545 4.93412 60.8861 1.22183 84.4156C-2.49046 107.945 2.31844 132.027 14.7829 152.326C27.2473 172.626 46.5485 187.809 69.2121 195.143C91.8756 202.476 116.413 201.479 138.406 192.331C160.4 183.182 178.406 166.483 189.182 145.239C199.958 123.995 202.797 99.6028 197.188 76.452C191.971 54.9212 179.766 35.78 162.554 21.9806C160.404 20.2571 157.276 20.7682 155.662 23.0012V23.0012C154.048 25.2342 154.56 28.3427 156.7 30.0781C171.99 42.4762 182.833 59.5813 187.49 78.8017C192.54 99.6424 189.984 121.601 180.283 140.725C170.582 159.849 154.373 174.882 134.574 183.118C114.775 191.354 92.6862 192.251 72.2841 185.649C51.882 179.047 34.5067 165.379 23.286 147.105C12.0653 128.831 7.73619 107.152 11.0781 85.9706C14.4199 64.7889 25.2132 45.4958 41.515 31.5643C56.5494 18.716 75.3582 11.2064 95.013 10.1163C97.7641 9.96373 100 7.74446 100 4.98907V4.98907Z" fill="#4089FF"/>
<path d="M90.3334 127.167C87.6404 127.156 85.0608 126.081 83.1566 124.177C81.2523 122.273 80.1777 119.693 80.1667 117V83C80.169 81.2165 80.6404 79.4649 81.5336 77.9212C82.4268 76.3775 83.7105 75.0959 85.2556 74.2051C86.8008 73.3143 88.5531 72.8457 90.3366 72.8463C92.1201 72.8468 93.8721 73.3166 95.4167 74.2083L121.708 89.375C123.568 90.4565 125.111 92.0069 126.183 93.8714C127.255 95.7358 127.82 97.8491 127.82 100C127.82 102.151 127.255 104.264 126.183 106.129C125.111 107.993 123.568 109.544 121.708 110.625L95.4167 125.792C93.8732 126.69 92.1194 127.165 90.3334 127.167V127.167ZM90.375 79.1667C89.6734 79.1759 88.9854 79.3622 88.375 79.7083C87.7763 80.044 87.2788 80.5343 86.9343 81.128C86.5898 81.7217 86.4111 82.397 86.4167 83.0833V117.083C86.4111 117.77 86.5898 118.445 86.9343 119.039C87.2788 119.632 87.7763 120.123 88.375 120.458C88.9704 120.802 89.6458 120.983 90.3334 120.983C91.0209 120.983 91.6963 120.802 92.2917 120.458L118.583 105.292C119.491 104.758 120.243 103.997 120.766 103.084C121.288 102.17 121.563 101.136 121.563 100.083C121.563 99.0308 121.288 97.9966 120.766 97.0831C120.243 96.1695 119.491 95.4084 118.583 94.875L92.2917 79.625C91.7051 79.3041 91.0433 79.1458 90.375 79.1667V79.1667Z" fill="#4089FF"/>
</svg>
